<!-- icon666.com - MILLIONS vector ICONS FREE --><svg viewBox="0 0 512 512" xmlns="http://www.w3.org/2000/svg"><path d="m452 255v257h-121l-30-31h-90l-30 31h-121v-257l196-195zm0 0" fill="#ececf1"></path><path d="m452 255v257h-121l-30-31h-45v-421zm0 0" fill="#e2e2e7"></path><path d="m331 420-15 15 15 15v62h-150v-152h150zm0 0" fill="#4a696f"></path><path d="m256 360h75v60l-15 15 15 15v62h-75zm0 0" fill="#3e5959"></path><path d="m301 420h30v30h-30zm0 0" fill="#25d9f8" style="fill: rgb(177, 248, 37);"></path><path d="m211 210h90v105h-90zm0 0" fill="#76e2f8" style="fill: rgb(177, 248, 37);"></path><path d="m256 210h45v105h-45zm0 0" fill="#25d9f8" style="fill: rgb(177, 248, 37);"></path><path d="m512 257.699219-42.300781 42.300781-213.699219-215.101562-213.699219 215.101562-42.300781-42.300781 256-257.699219zm0 0" fill="#ff7816"></path><path d="m512 257.699219-42.300781 42.300781-213.699219-215.101562v-84.898438zm0 0" fill="#ff4b00"></path><path d="m181 300h150v30h-150zm0 0" fill="#4a696f"></path><path d="m256 300h75v30h-75zm0 0" fill="#3e5959"></path></svg>