<?xml version="1.0" encoding="UTF-8" standalone="no"?>
<svg
   xmlns:dc="http://purl.org/dc/elements/1.1/"
   xmlns:cc="http://creativecommons.org/ns#"
   xmlns:rdf="http://www.w3.org/1999/02/22-rdf-syntax-ns#"
   xmlns:svg="http://www.w3.org/2000/svg"
   xmlns="http://www.w3.org/2000/svg"
   viewBox="0 0 352.76001 384.81332"
   height="384.81332"
   width="352.76001"
   xml:space="preserve"
   id="svg2"
   version="1.1"><metadata
     id="metadata8"><rdf:RDF><cc:Work
         rdf:about=""><dc:format>image/svg+xml</dc:format><dc:type
           rdf:resource="http://purl.org/dc/dcmitype/StillImage" /></cc:Work></rdf:RDF></metadata><defs
     id="defs6" /><g
     transform="matrix(1.3333333,0,0,-1.3333333,0,384.81333)"
     id="g10"><g
       transform="scale(0.1)"
       id="g12"><path
         id="path14"
         style="fill:#96d340;fill-opacity:1;fill-rule:nonzero;stroke:none"
         d="m 2513.44,2819.62 c 0,0 0,-777.37 -710.26,-690.3 v 13.32 c 0,0 22.48,313.75 194.83,539.71 108.31,93.91 271.12,156.34 515.43,137.27" /><path
         id="path16"
         style="fill:#96d340;fill-opacity:1;fill-rule:nonzero;stroke:none"
         d="m 1769.31,2158.48 c 0,0 -683.1,-92.83 -870.915,621.75 0,0 55.589,10.44 139.065,10.8 336.96,-44.08 533.96,-203.29 645.32,-346.14 40.66,-77.36 71.06,-171.63 86.53,-286.41" /><path
         id="path18"
         style="fill:#444647;fill-opacity:1;fill-rule:nonzero;stroke:none"
         d="m 782.594,2757.37 c 24.59,-75.59 81.195,-220.89 186.64,-355.1 194.296,-247.34 458.106,-345.02 784.376,-290.35 v 77.01 c -1.1,3.7 -2.88,9.36 -5.42,16.66 -14.17,40.73 -48.34,122.36 -118.16,211.59 -98.54,126.37 -285.3,286.03 -615.73,329.25 -73.234,9.64 -150.96,13.29 -231.706,10.94 z M 1843.57,2072.48 v -101.75 c 320.79,90.67 536.67,234.59 641.91,428.06 91.51,168.22 71.27,329.54 58.36,390.99 -217.24,28.01 -390.27,-40.17 -514.69,-203.08 -156.05,-204.6 -183.62,-491.37 -185.58,-514.22 z M 1798.59,379.949 H 67.1836 c -24.8438,0 -44.9766,20.133 -44.9766,44.973 V 1443.91 c 0,13.3 5.8868,25.92 16.086,34.47 l 854.906,716.73 c 17.25,14.45 42.516,13.94 59.145,-1.19 L 1385.16,1800.44 1324.65,1733.89 920.895,2100.95 112.16,1422.92 V 469.898 H 1753.61 V 2020.8 c -441.68,-68.53 -709.38,139.25 -857.083,328.41 -161.73,207.15 -214.699,430.91 -216.879,440.34 -2.968,12.87 -0.128,26.4 7.766,37 7.906,10.6 20.066,17.18 33.25,18 106.758,6.7 209.492,3.68 305.336,-8.93 360.64,-47.17 566.09,-223.48 674.92,-363.08 45,-57.5 76.83,-112.52 98.78,-157.6 29.95,102.59 78.81,222.58 157.94,326.34 151.69,198.61 363.52,277.01 629.79,232.98 16.48,-2.72 30.1,-14.36 35.35,-30.23 3.2,-9.62 76.53,-238.62 -57.31,-486.43 -119.63,-221.49 -362.5,-383.03 -721.9,-480.19 V 424.922 c 0,-24.84 -20.14,-44.973 -44.98,-44.973" /><path
         id="path20"
         style="fill:#96d340;fill-opacity:1;fill-rule:nonzero;stroke:none"
         d="M 914.531,1145.44 H 667.883 v 246.65 h 246.648 v -246.65" /><path
         id="path22"
         style="fill:#444647;fill-opacity:1;fill-rule:nonzero;stroke:none"
         d="m 1258.87,1145.44 h -234.24 v 246.65 h 234.24 v -246.65" /><path
         id="path24"
         style="fill:#96d340;fill-opacity:1;fill-rule:nonzero;stroke:none"
         d="m 1258.87,794.09 h -234.24 v 246.65 h 234.24 V 794.09" /><path
         id="path26"
         style="fill:#444647;fill-opacity:1;fill-rule:nonzero;stroke:none"
         d="M 920.738,794.09 H 674.09 v 246.65 H 920.738 V 794.09" /><path
         id="path28"
         style="fill:#96d340;fill-opacity:1;fill-rule:nonzero;stroke:none"
         d="m 1803.18,1658.17 c 0,0 210.48,262.3 503.55,35.62 0,0 -270.4,-301.16 -503.55,-35.62" /><path
         id="path30"
         style="fill:#444647;fill-opacity:1;fill-rule:nonzero;stroke:none"
         d="m 1852.68,1658.32 c 50.36,-48.47 105.61,-73.2 164.62,-73.61 0.51,0 1.04,0 1.53,0 98.44,0 187.55,65.81 231.81,104.9 -196.11,127.91 -344.37,19.73 -397.96,-31.29 z m 166.17,-145.57 c -0.54,0 -1.09,0 -1.63,0 -89.52,0.5 -170.63,41.44 -241.08,121.67 l -19.93,22.71 18.91,23.56 c 2.3,2.89 236.26,287.03 553.63,41.56 l 30.62,-23.69 -25.86,-28.82 c -5.78,-6.42 -142.96,-156.99 -314.66,-156.99" /><path
         id="path32"
         style="fill:#96d340;fill-opacity:1;fill-rule:nonzero;stroke:none"
         d="m 0,131.68 c 0,15.601 2.6875,30.89 8.09766,45.871 5.39454,15.008 13.30074,28.679 23.73824,41.031 10.4336,12.348 23.2071,22.188 38.3164,29.508 15.1094,7.308 32.2577,10.969 51.4567,10.969 22.789,0 42.344,-5.219 58.649,-15.661 16.32,-10.429 28.426,-23.796 36.347,-40.109 l -25.542,-16.551 c -5.043,10.793 -11.473,19.364 -19.258,25.723 -7.801,6.359 -16.2,10.859 -25.192,13.5 -8.996,2.629 -17.797,3.949 -26.441,3.949 -14.16,0 -26.6876,-2.879 -37.5978,-8.629 C 71.6445,215.52 62.4766,207.84 55.043,198.25 47.6133,188.66 42.0234,177.922 38.3164,166.051 c -3.7226,-11.879 -5.5859,-23.813 -5.5859,-35.813 0,-13.187 2.2148,-25.898 6.6601,-38.1364 C 43.8359,79.8711 50,69.0781 57.9258,59.7188 65.8477,50.3711 75.1953,42.9219 85.9805,37.4297 c 10.8047,-5.5391 22.5585,-8.3008 35.2615,-8.3008 8.871,0 17.992,1.5703 27.356,4.6914 9.347,3.1094 18.113,7.961 26.265,14.5703 8.153,6.5977 14.633,15.1797 19.43,25.7188 L 221.277,59.3711 C 215.992,46.6484 207.84,35.8594 196.805,26.9883 185.773,18.1016 173.477,11.3906 159.93,6.83984 146.383,2.26953 132.996,0 119.82,0 102.305,0 86.2266,3.78125 71.5938,11.3398 56.957,18.8906 44.3086,28.9609 33.6445,41.5508 22.9609,54.1484 14.6875,68.2891 8.80078,84.0195 2.93359,99.7188 0,115.609 0,131.68" /><path
         id="path34"
         style="fill:#96d340;fill-opacity:1;fill-rule:nonzero;stroke:none"
         d="M 435.355,30.5703 V 1.80078 H 261.934 V 257.262 H 432.121 V 228.469 H 294.313 v -82.75 h 119.82 V 118.73 H 294.313 V 30.5703 h 141.042" /><path
         id="path36"
         style="fill:#96d340;fill-opacity:1;fill-rule:nonzero;stroke:none"
         d="m 511.988,122.34 h 74.477 c 8.871,0 16.621,2.379 23.207,7.18 6.605,4.8 11.754,11.281 15.48,19.429 3.707,8.153 5.571,17.039 5.571,26.641 0,10.058 -2.145,19.109 -6.469,27.16 -4.32,8.031 -9.961,14.328 -16.918,18.879 -6.957,4.551 -14.633,6.84 -23.031,6.84 H 511.988 Z M 479.609,1.80078 V 257.262 h 106.504 c 11.262,0 21.59,-2.332 30.938,-7.024 9.367,-4.679 17.515,-10.91 24.472,-18.707 6.961,-7.793 12.352,-16.551 16.184,-26.269 3.848,-9.723 5.762,-19.614 5.762,-29.672 0,-13.918 -3.125,-27.16 -9.348,-39.762 -6.254,-12.598 -15.004,-22.789 -26.266,-30.59 C 616.578,97.4414 603.383,93.5391 588.273,93.5391 H 511.988 V 1.80078 h -32.379" /><path
         id="path38"
         style="fill:#96d340;fill-opacity:1;fill-rule:nonzero;stroke:none"
         d="m 809.184,293.602 v 36.699 h 26.636 v -36.699 z m -58.274,0 v 36.699 h 26.617 V 293.602 Z M 877.191,30.5703 V 1.80078 H 703.773 V 257.262 H 873.961 V 228.469 H 736.152 v -82.75 H 855.969 V 118.73 H 736.152 V 30.5703 h 141.039" /><path
         id="path40"
         style="fill:#96d340;fill-opacity:1;fill-rule:nonzero;stroke:none"
         d="M 921.449,1.80078 V 257.262 H 1070.05 V 228.469 H 953.828 V 1.80078 h -32.379" /><path
         id="path42"
         style="fill:#96d340;fill-opacity:1;fill-rule:nonzero;stroke:none"
         d="M 1111.42,1.80078 V 257.262 h 32.38 V 46.7695 l 147.89,210.4925 h 30.22 V 1.80078 h -32.38 V 208.328 L 1143.45,1.80078 h -32.03" /><path
         id="path44"
         style="fill:#96d340;fill-opacity:1;fill-rule:nonzero;stroke:none"
         d="M 1590.33,257.262 V 1.80078 h -32.38 V 118.012 H 1417.26 V 1.80078 h -32.38 V 257.262 h 32.38 V 146.789 h 140.69 v 110.473 h 32.38" /><path
         id="path46"
         style="fill:#96d340;fill-opacity:1;fill-rule:nonzero;stroke:none"
         d="m 1667.68,129.52 c 0,-12.95 2.11,-25.469 6.31,-37.5981 4.2,-12.1016 10.12,-22.8438 17.82,-32.2031 7.66,-9.3477 16.9,-16.7969 27.7,-22.2891 10.79,-5.5391 22.77,-8.3008 35.98,-8.3008 13.67,0 25.9,2.8828 36.69,8.6524 10.8,5.7578 19.97,13.4179 27.53,23.0273 7.55,9.5898 13.31,20.3828 17.27,32.3828 3.97,11.9806 5.94,24.0976 5.94,36.3286 0,12.968 -2.11,25.421 -6.29,37.421 -4.2,12 -10.21,22.739 -17.99,32.207 -7.8,9.473 -17.05,16.922 -27.71,22.313 -10.68,5.391 -22.49,8.098 -35.44,8.098 -13.68,0 -25.91,-2.829 -36.7,-8.45 -10.8,-5.64 -19.97,-13.269 -27.53,-22.859 -7.55,-9.59 -13.37,-20.328 -17.44,-32.199 -4.1,-11.879 -6.14,-24.051 -6.14,-36.531 z M 1755.12,0 c -17.99,0 -34.31,3.58984 -48.92,10.7891 -14.64,7.1992 -27.31,16.9726 -37.97,29.3203 -10.68,12.3515 -18.89,26.2695 -24.65,41.75 -5.74,15.4609 -8.63,31.3596 -8.63,47.6606 0,17.039 3.06,33.289 9.18,48.75 6.11,15.48 14.63,29.269 25.54,41.402 10.91,12.098 23.68,21.687 38.32,28.769 14.63,7.079 30.58,10.618 47.86,10.618 17.99,0 34.29,-3.731 48.92,-11.161 14.64,-7.429 27.24,-17.386 37.79,-29.867 10.55,-12.472 18.72,-26.39 24.46,-41.722 5.76,-15.36 8.64,-31.079 8.64,-47.137 0,-17.043 -3,-33.2814 -8.99,-48.7501 C 1860.66,64.9414 1852.21,51.1484 1841.3,39.0391 1830.39,26.9219 1817.62,17.3789 1802.98,10.4414 1788.35,3.46094 1772.4,0 1755.12,0" /><path
         id="path48"
         style="fill:#444647;fill-opacity:1;fill-rule:nonzero;stroke:none"
         d="M 2054.34,440 H 1934.2 c 0.51,-10.91 3.24,-20.941 8.19,-30.102 4.96,-9.148 11.79,-16.41 20.52,-21.777 8.73,-5.383 19.24,-8.07 31.48,-8.07 9.25,0 17.52,1.648 24.81,4.918 7.31,3.269 13.48,7.711 18.52,13.351 5.04,5.629 8.99,12.039 11.84,19.262 2.86,7.219 4.45,14.699 4.78,22.418 z m 0,20.66 c -0.49,10.91 -3.23,20.91 -8.19,29.969 -4.93,9.07 -11.82,16.32 -20.64,21.793 -8.82,5.437 -19.19,8.18 -31.12,8.18 -9.22,0 -17.46,-1.602 -24.68,-4.793 -7.2,-3.18 -13.42,-7.59 -18.62,-13.207 -5.22,-5.641 -9.24,-12.063 -12.11,-19.282 -2.84,-7.218 -4.44,-14.769 -4.78,-22.66 z m 35.01,-21.148 h -16.37 c -0.51,-11.274 -2.69,-21.84 -6.55,-31.75 -3.85,-9.91 -9.23,-18.641 -16.11,-26.203 -6.89,-7.547 -15.08,-13.469 -24.57,-17.739 -9.48,-4.289 -19.94,-6.429 -31.36,-6.429 -12.08,0 -22.87,2.269 -32.36,6.8 -9.48,4.528 -17.62,10.629 -24.42,18.27 -6.81,7.621 -12.05,16.359 -15.74,26.18 -3.71,9.839 -5.8,20.109 -6.31,30.871 h -13.35 v 21.66 h 13.35 c 0.51,10.906 2.69,21.308 6.56,31.219 3.86,9.91 9.18,18.668 15.98,26.32 6.8,7.641 14.96,13.648 24.44,18 9.49,4.379 20.1,6.559 31.85,6.559 11.76,0 22.39,-2.231 31.87,-6.68 9.49,-4.442 17.63,-10.539 24.42,-18.25 6.8,-7.731 12.11,-16.5 15.89,-26.32 3.77,-9.821 5.9,-20.122 6.41,-30.848 h 16.37 v -21.66" /><path
         id="path50"
         style="fill:#444647;fill-opacity:1;fill-rule:nonzero;stroke:none"
         d="m 2069.2,696.148 h 20.15 V 574.75 h -178.83 v 119.121 h 20.15 V 597.41 h 57.94 v 83.879 h 18.89 V 597.41 h 61.7 v 98.738" /><path
         id="path52"
         style="fill:#444647;fill-opacity:1;fill-rule:nonzero;stroke:none"
         d="m 2004.97,749.809 v 52.121 c 0,6.218 -1.67,11.629 -5.02,16.25 -3.36,4.621 -7.89,8.23 -13.6,10.832 -5.71,2.609 -11.93,3.91 -18.64,3.91 -7.07,0 -13.39,-1.512 -19.03,-4.531 -5.62,-3.02 -10.03,-6.969 -13.21,-11.84 -3.2,-4.871 -4.8,-10.242 -4.8,-16.129 v -50.613 z m 84.38,-22.668 h -178.83 v 74.55 c 0,7.879 1.65,15.11 4.92,21.661 3.27,6.546 7.64,12.238 13.09,17.128 5.46,4.86 11.59,8.641 18.39,11.329 6.8,2.691 13.72,4.019 20.79,4.019 9.73,0 19.01,-2.168 27.83,-6.527 8.82,-4.379 15.95,-10.512 21.4,-18.403 5.46,-7.878 8.18,-17.128 8.18,-27.699 v -53.39 h 64.23 v -22.668" /><path
         id="path54"
         style="fill:#444647;fill-opacity:1;fill-rule:nonzero;stroke:none"
         d="m 2089.35,1038.69 h -136.51 l 105.03,-58.94 v -13.852 l -105.03,-59.187 h 136.51 v -22.66 h -178.83 v 23.91 l 116.11,64.738 -116.11,64.991 v 23.66 h 178.83 v -22.66" /><path
         id="path56"
         style="fill:#444647;fill-opacity:1;fill-rule:nonzero;stroke:none"
         d="m 2019.34,1199.76 -82.62,-31.62 82.62,-31.77 z m -108.82,-41.2 v 19.15 l 178.83,73.04 v -24.18 l -52.39,-20.06 v -76.92 l 52.39,-20.13 v -24.2 l -178.83,73.3" /></g></g></svg>